<?xml version="1.0" encoding="UTF-8"?>
<!DOCTYPE svg PUBLIC "-//W3C//DTD SVG 1.1//EN" "http://www.w3.org/Graphics/SVG/1.1/DTD/svg11.dtd">
<svg xmlns="http://www.w3.org/2000/svg" version="1.1" width="512px" height="512px" style="shape-rendering:geometricPrecision; text-rendering:geometricPrecision; image-rendering:optimizeQuality; fill-rule:evenodd; clip-rule:evenodd" xmlns:xlink="http://www.w3.org/1999/xlink">
<g><path style="opacity:0.968" fill="#000000" d="M 235.5,-0.5 C 248.833,-0.5 262.167,-0.5 275.5,-0.5C 354.916,11.7901 408.082,55.7901 435,131.5C 438.229,142.645 440.562,153.978 442,165.5C 442.772,179.838 443.605,194.171 444.5,208.5C 470.623,221.148 481.123,241.815 476,270.5C 470.067,291.433 456.567,304.6 435.5,310C 428.788,310.504 422.122,311.338 415.5,312.5C 427.371,345.947 438.538,379.613 449,413.5C 453.205,452.923 438.371,482.757 404.5,503C 396.009,506.775 387.343,509.609 378.5,511.5C 296.5,511.5 214.5,511.5 132.5,511.5C 88.4151,501.233 64.4151,473.4 60.5,428C 61.033,423.17 61.533,418.337 62,413.5C 72.4622,379.613 83.6289,345.947 95.5,312.5C 68.2007,313.449 48.7007,301.782 37,277.5C 29.0336,252.74 34.8669,231.907 54.5,215C 58.3403,212.579 62.3403,210.412 66.5,208.5C 63.4484,145.497 84.1151,91.9974 128.5,48C 159.196,20.9873 194.863,4.82065 235.5,-0.5 Z M 254.5,29.5 C 315.769,31.8653 361.936,59.1986 393,111.5C 408.194,140.984 414.694,172.318 412.5,205.5C 392.497,205.667 372.497,205.5 352.5,205C 338.123,203.063 326.29,196.563 317,185.5C 312.144,177.788 307.81,169.788 304,161.5C 285.799,138.817 262.632,131.651 234.5,140C 223.207,144.402 214.04,151.569 207,161.5C 202.453,174.102 195.286,184.935 185.5,194C 177.486,200.007 168.486,203.673 158.5,205C 138.503,205.5 118.503,205.667 98.5,205.5C 95.1271,143.335 118.127,93.8349 167.5,57C 193.997,39.6665 222.997,30.4998 254.5,29.5 Z M 250.5,167.5 C 262.697,166.167 272.197,170.5 279,180.5C 292.37,213.102 316.537,231.602 351.5,236C 378.167,236.333 404.833,236.667 431.5,237C 444.047,242.624 448.547,252.124 445,265.5C 441.58,273.798 435.414,278.631 426.5,280C 408.167,280.333 389.833,280.667 371.5,281C 387.056,325.001 402.223,369.167 417,413.5C 422.732,441.313 413.232,462.147 388.5,476C 381.461,478.926 374.127,480.593 366.5,481C 292.5,481.667 218.5,481.667 144.5,481C 112.863,477.363 95.1965,459.697 91.5,428C 92.1296,423.129 92.963,418.295 94,413.5C 109.037,369.266 124.204,325.099 139.5,281C 121.167,280.667 102.833,280.333 84.5,280C 72.2514,277.751 65.5847,270.418 64.5,258C 65.0854,247.824 70.0854,240.824 79.5,237C 106.167,236.667 132.833,236.333 159.5,236C 185.248,233.713 205.748,222.213 221,201.5C 225.856,193.788 230.19,185.788 234,177.5C 238.759,172.714 244.259,169.381 250.5,167.5 Z"/></g>
<g><path style="opacity:0.946" fill="#000000" d="M 171.5,102.5 C 181.833,102.5 192.167,102.5 202.5,102.5C 202.5,112.833 202.5,123.167 202.5,133.5C 192.167,133.5 181.833,133.5 171.5,133.5C 171.5,123.167 171.5,112.833 171.5,102.5 Z"/></g>
<g><path style="opacity:0.945" fill="#000000" d="M 308.5,102.5 C 318.833,102.5 329.167,102.5 339.5,102.5C 339.5,112.833 339.5,123.167 339.5,133.5C 329.167,133.5 318.833,133.5 308.5,133.5C 308.5,123.167 308.5,112.833 308.5,102.5 Z"/></g>
<g><path style="opacity:0.933" fill="#000000" d="M 225.5,266.5 C 226.5,266.5 227.5,266.5 228.5,266.5C 231.022,278.576 233.522,290.576 236,302.5C 225.978,305.38 215.812,307.713 205.5,309.5C 203.532,297.493 200.866,285.659 197.5,274C 206.939,271.475 216.272,268.975 225.5,266.5 Z"/></g>
<g><path style="opacity:0.934" fill="#000000" d="M 282.5,266.5 C 292.812,268.287 302.978,270.62 313,273.5C 310.816,285.574 307.982,297.574 304.5,309.5C 294.491,307.064 284.491,304.564 274.5,302C 277.61,290.287 280.276,278.454 282.5,266.5 Z"/></g>
</svg>
