<?xml version="1.0" encoding="UTF-8"?>
<!DOCTYPE svg PUBLIC "-//W3C//DTD SVG 1.1//EN" "http://www.w3.org/Graphics/SVG/1.1/DTD/svg11.dtd">
<svg xmlns="http://www.w3.org/2000/svg" version="1.1" width="512px" height="512px" style="shape-rendering:geometricPrecision; text-rendering:geometricPrecision; image-rendering:optimizeQuality; fill-rule:evenodd; clip-rule:evenodd" xmlns:xlink="http://www.w3.org/1999/xlink">
<g><path style="opacity:0.996" fill="#efedfe" d="M 236.5,-0.5 C 242.833,-0.5 249.167,-0.5 255.5,-0.5C 255.5,48.1667 255.5,96.8333 255.5,145.5C 240.754,146.29 228.588,152.29 219,163.5C 214.172,173.159 208.839,182.492 203,191.5C 190.353,206.741 174.186,215.574 154.5,218C 128.169,218.5 101.835,218.667 75.5,218.5C 75.3334,201.163 75.5001,183.83 76,166.5C 84.608,88.5802 125.441,35.7469 198.5,8C 211.09,4.18524 223.756,1.35191 236.5,-0.5 Z"/></g>
<g><path style="opacity:1" fill="#dad9e4" d="M 255.5,-0.5 C 261.833,-0.5 268.167,-0.5 274.5,-0.5C 342.64,9.31928 391.474,45.3193 421,107.5C 428.848,126.407 433.515,146.074 435,166.5C 435.5,183.83 435.667,201.163 435.5,218.5C 409.165,218.667 382.831,218.5 356.5,218C 326.115,213.288 305.615,196.455 295,167.5C 287.172,155.837 276.339,148.837 262.5,146.5C 260.393,145.532 258.059,145.198 255.5,145.5C 255.5,96.8333 255.5,48.1667 255.5,-0.5 Z"/></g>
<g><path style="opacity:1" fill="#714d56" d="M 171.5,102.5 C 181.5,102.5 191.5,102.5 201.5,102.5C 201.5,112.5 201.5,122.5 201.5,132.5C 191.5,132.5 181.5,132.5 171.5,132.5C 171.5,122.5 171.5,112.5 171.5,102.5 Z"/></g>
<g><path style="opacity:1" fill="#5b354c" d="M 309.5,102.5 C 319.5,102.5 329.5,102.5 339.5,102.5C 339.5,112.5 339.5,122.5 339.5,132.5C 329.5,132.5 319.5,132.5 309.5,132.5C 309.5,122.5 309.5,112.5 309.5,102.5 Z"/></g>
<g><path style="opacity:0.998" fill="#feb655" d="M 255.5,145.5 C 258.059,145.198 260.393,145.532 262.5,146.5C 260.167,146.5 257.833,146.5 255.5,146.5C 255.5,268.167 255.5,389.833 255.5,511.5C 212.5,511.5 169.5,511.5 126.5,511.5C 88.3397,502.253 67.673,477.92 64.5,438.5C 64.85,431.032 66.0167,423.699 68,416.5C 81.5053,377.317 95.0053,338.15 108.5,299C 95.1667,298.667 81.8333,298.333 68.5,298C 43.1753,290.533 32.6753,273.699 37,247.5C 43.1144,228.883 55.9477,219.216 75.5,218.5C 101.835,218.667 128.169,218.5 154.5,218C 174.186,215.574 190.353,206.741 203,191.5C 208.839,182.492 214.172,173.159 219,163.5C 228.588,152.29 240.754,146.29 255.5,145.5 Z"/></g>
<g><path style="opacity:1" fill="#fea001" d="M 262.5,146.5 C 276.339,148.837 287.172,155.837 295,167.5C 305.615,196.455 326.115,213.288 356.5,218C 382.831,218.5 409.165,218.667 435.5,218.5C 452.172,219.004 464.339,226.67 472,241.5C 479.742,263.607 473.909,281.107 454.5,294C 450.637,295.732 446.637,297.066 442.5,298C 429.167,298.333 415.833,298.667 402.5,299C 415.995,338.15 429.495,377.317 443,416.5C 452.123,456.744 438.623,486.578 402.5,506C 396.469,508.168 390.469,510.001 384.5,511.5C 341.5,511.5 298.5,511.5 255.5,511.5C 255.5,389.833 255.5,268.167 255.5,146.5C 257.833,146.5 260.167,146.5 262.5,146.5 Z"/></g>
<g><path style="opacity:1" fill="#ffa004" d="M 222.5,267.5 C 224.5,267.5 226.5,267.5 228.5,267.5C 230.993,279.137 233.326,290.804 235.5,302.5C 227.847,304.332 220.18,306.165 212.5,308C 210.5,308.667 208.5,308.667 206.5,308C 203.287,296.647 200.62,285.147 198.5,273.5C 206.705,271.864 214.705,269.864 222.5,267.5 Z"/></g>
<g><path style="opacity:1" fill="#f77e00" d="M 283.5,267.5 C 293.199,269.341 302.866,271.341 312.5,273.5C 310.453,284.975 307.786,296.309 304.5,307.5C 303.833,307.833 303.167,308.167 302.5,308.5C 293.521,306.338 284.521,304.338 275.5,302.5C 277.763,290.719 280.429,279.052 283.5,267.5 Z"/></g>
</svg>
