<?xml version="1.0" encoding="UTF-8"?>
<!DOCTYPE svg PUBLIC "-//W3C//DTD SVG 1.1//EN" "http://www.w3.org/Graphics/SVG/1.1/DTD/svg11.dtd">
<svg xmlns="http://www.w3.org/2000/svg" version="1.1" width="512px" height="512px" style="shape-rendering:geometricPrecision; text-rendering:geometricPrecision; image-rendering:optimizeQuality; fill-rule:evenodd; clip-rule:evenodd" xmlns:xlink="http://www.w3.org/1999/xlink">
<g><path style="opacity:0.971" fill="#010101" d="M 511.5,219.5 C 511.5,224.833 511.5,230.167 511.5,235.5C 508.413,240.717 503.746,243.884 497.5,245C 473.517,248.244 449.517,248.244 425.5,245C 391.095,238.098 356.428,233.265 321.5,230.5C 311.9,234.901 301.9,238.067 291.5,240C 268.126,243.815 244.792,247.815 221.5,252C 204.681,255.469 192.847,264.969 186,280.5C 184.044,289.16 184.044,297.827 186,306.5C 188.201,315.768 191.201,324.768 195,333.5C 201.159,345.822 207.826,357.822 215,369.5C 236.621,406.465 240.287,445.131 226,485.5C 220.008,498.675 209.675,505.342 195,505.5C 188.591,505.207 182.591,503.54 177,500.5C 161.255,509.564 145.421,509.73 129.5,501C 126.833,498.333 124.167,495.667 121.5,493C 106.475,495.095 92.808,491.761 80.5,483C 66.4149,481.623 54.4149,475.956 44.5,466C 27.798,465.738 15.6314,458.238 8,443.5C 7.33333,385.5 7.33333,327.5 8,269.5C 8.95721,218.081 18.6239,168.414 37,120.5C 74.0988,37.6728 138.265,-1.16055 229.5,4C 252.097,7.7983 273.097,15.7983 292.5,28C 312.927,40.7535 331.927,55.4201 349.5,72C 371.827,83.077 389.993,98.9103 404,119.5C 409.167,124 414.333,128.5 419.5,133C 439.847,146.172 459.847,159.839 479.5,174C 494.766,186.067 505.433,201.234 511.5,219.5 Z"/></g>
<g><path style="opacity:1" fill="#f4f4f4" d="M 243.5,24.5 C 270.838,39.3213 295.838,57.488 318.5,79C 309.326,89.1794 303.159,101.013 300,114.5C 296.75,127.001 294.417,139.668 293,152.5C 292.254,175.513 292.421,198.513 293.5,221.5C 274.375,225.808 255.042,228.975 235.5,231C 222.226,232.983 209.56,236.816 197.5,242.5C 158.826,251.176 143.993,274.842 153,313.5C 157.007,327.517 162.674,340.85 170,353.5C 180.086,368.925 188.419,385.258 195,402.5C 203.001,429.805 202.001,456.805 192,483.5C 191.578,485.426 190.411,486.426 188.5,486.5C 184.387,485.028 180.22,483.695 176,482.5C 170.195,484.946 164.362,487.446 158.5,490C 146.336,492.001 137.502,487.501 132,476.5C 130.581,475.54 129.081,474.707 127.5,474C 118.963,475.413 110.296,475.746 101.5,475C 95.9961,472.827 90.9961,469.827 86.5,466C 78.4589,465.431 70.7922,463.431 63.5,460C 59.8162,456.248 56.1496,452.581 52.5,449C 42.2041,450.345 33.3708,447.511 26,440.5C 24.3418,383.916 24.0084,327.249 25,270.5C 26.3472,223.078 35.0139,177.078 51,132.5C 83.4493,53.4932 142.616,16.3265 228.5,21C 233.466,22.3595 238.466,23.5261 243.5,24.5 Z"/></g>
<g><path style="opacity:1" fill="#cdd5d9" d="M 243.5,24.5 C 276.926,36.702 306.26,55.202 331.5,80C 320.638,97.2509 314.138,116.084 312,136.5C 308.421,163.412 307.588,190.412 309.5,217.5C 304.149,218.838 298.816,220.171 293.5,221.5C 292.421,198.513 292.254,175.513 293,152.5C 294.417,139.668 296.75,127.001 300,114.5C 303.159,101.013 309.326,89.1794 318.5,79C 295.838,57.488 270.838,39.3213 243.5,24.5 Z"/></g>
<g><path style="opacity:1" fill="#030303" d="M 243.5,54.5 C 265.509,52.6824 276.343,62.6824 276,84.5C 271.152,99.1808 260.985,105.681 245.5,104C 227.484,96.4547 222.317,83.6214 230,65.5C 233.819,60.8329 238.319,57.1663 243.5,54.5 Z"/></g>
<g><path style="opacity:1" fill="#5c7785" d="M 248.5,70.5 C 256.523,70.683 260.023,74.683 259,82.5C 256.459,87.0685 252.625,88.5685 247.5,87C 240.847,81.1004 241.181,75.6004 248.5,70.5 Z"/></g>
<g><path style="opacity:1" fill="#ef7900" d="M 470.5,206.5 C 466.506,199.325 461.506,192.825 455.5,187C 450.167,182.667 444.833,178.333 439.5,174C 420.833,161.333 402.167,148.667 383.5,136C 375.247,129.749 368.414,122.249 363,113.5C 356.577,106.572 349.744,100.238 342.5,94.5C 343.164,92.513 344.331,90.8463 346,89.5C 363.143,98.6401 377.143,111.307 388,127.5C 392.5,132 397,136.5 401.5,141C 425.11,156.944 448.443,173.277 471.5,190C 480.067,196.891 486.733,205.224 491.5,215C 484.295,212.733 477.295,209.9 470.5,206.5 Z"/></g>
<g><path style="opacity:1" fill="#fc9601" d="M 342.5,94.5 C 349.744,100.238 356.577,106.572 363,113.5C 368.414,122.249 375.247,129.749 383.5,136C 402.167,148.667 420.833,161.333 439.5,174C 444.833,178.333 450.167,182.667 455.5,187C 461.506,192.825 466.506,199.325 470.5,206.5C 429.319,192.726 386.985,186.56 343.5,188C 337.442,187.022 331.442,185.855 325.5,184.5C 324.982,161.819 327.482,139.486 333,117.5C 335.109,109.326 338.276,101.659 342.5,94.5 Z"/></g>
<g><path style="opacity:1" fill="#060300" d="M 398.5,155.5 C 405.936,155.136 411.769,158.136 416,164.5C 419.73,169.823 419.23,174.656 414.5,179C 411.366,179.79 408.366,179.457 405.5,178C 402.333,174.833 399.167,171.667 396,168.5C 393.458,163.438 394.292,159.105 398.5,155.5 Z"/></g>
<g><path style="opacity:1" fill="#ed7800" d="M 480.5,228.5 C 468.678,229.495 456.678,229.828 444.5,229.5C 418.08,226.384 391.746,222.55 365.5,218C 352.54,216.322 339.54,215.155 326.5,214.5C 325.92,210.19 325.586,205.857 325.5,201.5C 332.103,202.896 338.77,204.063 345.5,205C 392.295,202.918 437.295,210.751 480.5,228.5 Z"/></g>
<g><path style="opacity:1" fill="#9a4e01" d="M 480.5,228.5 C 481.043,228.56 481.376,228.893 481.5,229.5C 469.006,230.825 456.673,230.825 444.5,229.5C 456.678,229.828 468.678,229.495 480.5,228.5 Z"/></g>
<g><path style="opacity:1" fill="#cdd6d9" d="M 197.5,242.5 C 172.568,256.88 162.901,278.38 168.5,307C 171.623,323.037 177.123,338.204 185,352.5C 193.175,366.179 200.841,380.179 208,394.5C 218.656,422.19 219.323,450.19 210,478.5C 208.558,482.275 206.058,485.108 202.5,487C 197.648,487.815 192.981,487.648 188.5,486.5C 190.411,486.426 191.578,485.426 192,483.5C 202.001,456.805 203.001,429.805 195,402.5C 188.419,385.258 180.086,368.925 170,353.5C 162.674,340.85 157.007,327.517 153,313.5C 143.993,274.842 158.826,251.176 197.5,242.5 Z"/></g>
<g><path style="opacity:1" fill="#070707" d="M 63.5,331.5 C 71.6577,330.823 75.1577,334.49 74,342.5C 68.1941,350.584 65.1941,359.584 65,369.5C 62.0913,372.394 58.5913,373.227 54.5,372C 52.1853,370.891 50.6853,369.057 50,366.5C 48.9812,352.563 53.4812,340.896 63.5,331.5 Z"/></g>
<g><path style="opacity:1" fill="#070707" d="M 155.5,381.5 C 160.874,380.937 165.041,382.937 168,387.5C 174.475,396.919 176.808,407.252 175,418.5C 168.725,425.646 163.392,424.98 159,416.5C 158.667,412.833 158.333,409.167 158,405.5C 155.468,400.316 152.968,395.149 150.5,390C 151.137,386.537 152.803,383.704 155.5,381.5 Z"/></g>
<g><path style="opacity:1" fill="#060606" d="M 105.5,398.5 C 109.803,397.796 113.303,399.13 116,402.5C 117.228,413.484 113.728,422.651 105.5,430C 96.128,433.572 91.628,430.406 92,420.5C 97.1667,415.168 100.5,408.835 102,401.5C 103.145,400.364 104.312,399.364 105.5,398.5 Z"/></g>
</svg>
